<svg width="531" height="175" viewBox="0 0 531 175" fill="none" xmlns="http://www.w3.org/2000/svg">
<path d="M82.8458 75.5842H84.0688V1.64355H87.8442V88.9603H77.8474L7.4976 5.41224H3.77539V88.9603H0V1.64355H20.738L82.8458 75.5842Z" fill="#1D1D1D"/>
<path d="M204.456 25.5846C201.266 19.852 197.171 15.1278 192.067 11.3591C186.962 7.53738 181.272 4.72413 174.945 2.86633C168.617 0.955441 162.342 0 156.068 0C149.846 0 143.518 0.955441 137.191 2.86633C130.863 4.67105 125.173 7.53738 120.068 11.3591C115.07 15.0748 110.976 19.852 107.679 25.5846C104.488 31.2111 102.946 37.8461 102.946 45.4366C102.946 52.9209 104.542 59.5028 107.679 65.1293C110.922 70.7558 115.07 75.4799 120.068 79.1955C125.173 82.9112 130.863 85.7775 137.191 87.6884C143.518 89.5992 149.793 90.5547 156.068 90.5547C162.289 90.5547 168.617 89.5992 174.945 87.6884C181.272 85.7775 186.962 82.9642 192.067 79.1955C197.171 75.4799 201.266 70.7558 204.456 65.1293C207.7 59.5028 209.348 52.9209 209.348 45.4366C209.295 37.8461 207.7 31.2642 204.456 25.5846ZM193.715 61.5199C191.96 66.5094 189.408 70.915 185.952 74.7368C182.602 78.5586 178.454 81.5841 173.456 83.8135C168.457 86.0429 162.714 87.1576 156.227 87.1576C149.74 87.1576 143.997 86.0429 138.999 83.8135C134 81.478 129.799 78.3462 126.396 74.4714C122.993 70.5435 120.388 66.0317 118.633 60.8829C116.878 55.7341 116.027 50.32 116.027 44.6935C116.027 39.2262 116.878 33.9713 118.633 28.9817C120.388 23.8861 122.94 19.4804 126.237 15.7648C129.64 11.943 133.841 8.91746 138.839 6.68809C143.837 4.35257 149.58 3.13173 156.068 3.07865C162.555 2.97249 168.298 4.14025 173.296 6.42269C178.295 8.75822 182.495 11.8899 185.898 15.924C189.302 19.852 191.907 24.4169 193.662 29.6187C195.47 34.7675 196.427 40.1816 196.427 45.8081C196.374 51.2754 195.47 56.5303 193.715 61.5199Z" fill="#1D1D1D"/>
<path d="M307.296 75.5842H308.572V1.64355H312.294V88.9603H302.297L232.001 5.41224H228.225V88.9603H224.503V1.64355H245.241L307.296 75.5842Z" fill="#1D1D1D"/>
<path d="M412.315 75.5842H413.538V1.64355H417.313V88.9603H407.316L336.966 5.41224H333.244V88.9603H329.469V1.64355H350.207L412.315 75.5842Z" fill="#1D1D1D"/>
<path d="M480.272 1.64355H479.049L428.533 88.9603H432.894L452.515 55.3076H496.862L516.324 88.9603H530.841L480.272 1.64355ZM454.535 51.5389L474.635 16.7183L494.735 51.5389H454.535Z" fill="#1D1D1D"/>
<path d="M115.629 130.415H104.186V127.438H130.515V130.415H119.071V160H115.629V130.415ZM150.821 160.279C146.604 160.279 143.317 159.07 140.96 156.651C138.603 154.232 137.424 150.712 137.424 146.091V127.438H140.867V145.952C140.867 149.735 141.72 152.557 143.425 154.418C145.131 156.279 147.596 157.209 150.821 157.209C154.077 157.209 156.558 156.279 158.264 154.418C159.97 152.557 160.822 149.735 160.822 145.952V127.438H164.172V146.091C164.172 150.712 162.993 154.232 160.636 156.651C158.311 159.07 155.039 160.279 150.821 160.279ZM182.561 130.415H171.118V127.438H197.446V130.415H186.003V160H182.561V130.415ZM212.052 130.415H200.608V127.438H226.937V130.415H215.494V160H212.052V130.415ZM248.542 160.279C245.317 160.279 242.386 159.566 239.75 158.139C237.145 156.682 235.098 154.697 233.61 152.185C232.152 149.673 231.424 146.851 231.424 143.719C231.424 140.587 232.152 137.765 233.61 135.253C235.098 132.741 237.145 130.772 239.75 129.345C242.386 127.888 245.317 127.159 248.542 127.159C251.767 127.159 254.666 127.872 257.24 129.299C259.845 130.725 261.892 132.71 263.381 135.253C264.869 137.765 265.613 140.587 265.613 143.719C265.613 146.851 264.869 149.689 263.381 152.232C261.892 154.744 259.845 156.713 257.24 158.139C254.666 159.566 251.767 160.279 248.542 160.279ZM248.542 157.209C251.116 157.209 253.442 156.635 255.519 155.488C257.597 154.309 259.225 152.697 260.404 150.65C261.582 148.572 262.171 146.262 262.171 143.719C262.171 141.176 261.582 138.881 260.404 136.835C259.225 134.757 257.597 133.144 255.519 131.997C253.442 130.818 251.116 130.229 248.542 130.229C245.968 130.229 243.626 130.818 241.518 131.997C239.44 133.144 237.796 134.757 236.587 136.835C235.409 138.881 234.819 141.176 234.819 143.719C234.819 146.262 235.409 148.572 236.587 150.65C237.796 152.697 239.44 154.309 241.518 155.488C243.626 156.635 245.968 157.209 248.542 157.209ZM310.669 143.207C312.809 143.673 314.452 144.603 315.6 145.998C316.778 147.363 317.367 149.131 317.367 151.301C317.367 154.092 316.328 156.248 314.251 157.767C312.204 159.256 309.165 160 305.133 160H290.155V127.438H304.203C307.831 127.438 310.638 128.167 312.623 129.625C314.638 131.082 315.646 133.144 315.646 135.811C315.646 137.61 315.197 139.145 314.297 140.416C313.429 141.657 312.219 142.587 310.669 143.207ZM293.597 130.276V142.091H303.97C306.606 142.091 308.638 141.595 310.064 140.603C311.491 139.579 312.204 138.106 312.204 136.183C312.204 134.261 311.491 132.803 310.064 131.811C308.638 130.787 306.606 130.276 303.97 130.276H293.597ZM305.087 157.162C308.002 157.162 310.204 156.666 311.692 155.674C313.181 154.682 313.925 153.131 313.925 151.022C313.925 146.96 310.979 144.929 305.087 144.929H293.597V157.162H305.087ZM350.576 157.023V160H327.55V127.438H349.878V130.415H330.992V141.998H347.831V144.929H330.992V157.023H350.576ZM388.205 127.438V160H385.368L364.435 133.578V160H360.993V127.438H363.831L384.81 153.86V127.438H388.205ZM424.185 157.023V160H401.159V127.438H423.487V130.415H404.602V141.998H421.441V144.929H404.602V157.023H424.185Z" fill="#1D1D1D"/>
</svg>
